<?xml version="1.0" encoding="UTF-8" standalone="no"?>
<svg
   viewBox="0 0 25 25"
   width="25"
   height="25"
   version="1.1"
   id="svg3"
   sodipodi:docname="a10.svg"
   inkscape:version="1.3.2 (091e20e, 2023-11-25)"
   xmlns:inkscape="http://www.inkscape.org/namespaces/inkscape"
   xmlns:sodipodi="http://sodipodi.sourceforge.net/DTD/sodipodi-0.dtd"
   xmlns="http://www.w3.org/2000/svg"
   xmlns:svg="http://www.w3.org/2000/svg">
  <defs
     id="defs3" />
  <sodipodi:namedview
     id="namedview3"
     pagecolor="#ffffff"
     bordercolor="#000000"
     borderopacity="0.25"
     inkscape:showpageshadow="2"
     inkscape:pageopacity="0.0"
     inkscape:pagecheckerboard="0"
     inkscape:deskcolor="#d1d1d1"
     inkscape:zoom="16"
     inkscape:cx="11.78125"
     inkscape:cy="11.59375"
     inkscape:window-width="1392"
     inkscape:window-height="1212"
     inkscape:window-x="0"
     inkscape:window-y="25"
     inkscape:window-maximized="0"
     inkscape:current-layer="svg3" />
  <path
     id="aircraftIcon"
     style="display:inline;stroke-width:0.858343"
     d="M 0.00156265,0 C -0.18510819,0.01591211 -0.5019755,0.30203528 -0.6703122,0.85546875 -0.906985,1.6316909 -0.9339845,2.1769373 -0.9339845,6.4355474 V 10.509766 H -2.115625 -3.2992188 l -0.035156,-0.5429687 c -0.020003,-0.2988214 -0.076664,-0.6247096 -0.125,-0.7246094 C -3.6410457,8.869988 -3.9868182,8.8810469 -4.135156,9.2656259 -4.175993,9.3708264 -4.22677,9.6922592 -4.2484372,9.9804692 l -0.041016,0.5253898 -0.1796876,0.03125 c -0.098336,0.01679 -0.9315391,0.09854 -1.8515624,0.18164 -2.7250693,0.247539 -1.889503,0.187947 -4.0253908,0.378906 -1.656709,0.153829 -1.776896,0.192992 -1.990234,0.656251 -0.12167,0.266106 -0.134297,0.379541 -0.154297,1.505859 -0.0125,0.670131 -0.0125,1.21875 0,1.21875 0.0125,0 1.789997,0.147957 3.9492186,0.330078 2.1592216,0.182119 3.9976016,0.332032 4.0859375,0.332032 h 1.3652345 l 0.00391,1.248046 c 0.00503,2.241142 0.056768,2.892271 0.2734371,3.41211 0.1733372,0.476519 0.4730899,0.564309 0.8222662,0.572265 0.3425078,-0.01856 0.5373914,-0.147908 0.726562,-0.572265 0.1133353,-0.246659 0.1425726,-0.269532 0.3300785,-0.269532 h 0.2050784 l 0.070312,0.736329 c 0.038332,0.404907 0.084064,0.837166 0.1015631,0.960937 l 0.033202,0.226562 H -2.252344 -3.9789063 c -0.255007,0.0035 -0.283593,-0.0024 -0.3085938,0.04102 -0.1108359,0.220136 0.00193,3.085937 0.1210938,3.085937 h 0.3476562 1.6972661 c 1.1425279,0 1.63447594,4.89e-4 1.69531177,0.0625 0.0233357,0.02385 0.063965,0.129604 0.14062566,0.210938 0.0800082,0.08487 0.18236689,0.135691 0.28320254,0.144531 0.10167173,-0.008 0.20627348,-0.05965 0.28710922,-0.144531 0.0766745,-0.08133 0.11533873,-0.187068 0.13867232,-0.210938 0.0608369,-0.06276 0.55473509,-0.0625 1.69726509,-0.0625 h 1.6953128 0.3476564 c 0.1191698,0 0.2319289,-2.865801 0.1210933,-3.085937 -0.025839,-0.04245 -0.05163,-0.0366 -0.3066405,-0.04102 H 2.2515626 0.52304727 l 0.0332025,-0.226562 c 0.0175098,-0.122886 0.0643527,-0.55603 0.10351537,-0.960937 l 0.0683595,-0.736329 h 0.20507847 c 0.18750589,0 0.21674209,0.02481 0.33007849,0.271484 0.1891706,0.424359 0.3840521,0.552818 0.726562,0.572266 0.3491752,-0.008 0.6489279,-0.09771 0.8222651,-0.574218 0.1812379,-0.434085 0.2438833,-1.019872 0.2636724,-2.492188 0.053122,-0.478603 0.080945,-1.15148 0.09375,-2.167968 H 4.454688 c 0.089179,0 1.9295018,-0.14796 4.0878907,-0.330079 2.1592213,-0.18212 3.9347643,-0.332031 3.9472643,-0.332031 0.0125,0 0.01368,-0.546664 0.002,-1.216797 C 12.470964,12.135404 12.459165,12.021967 12.3375,11.75586 12.124994,11.292604 12.002022,11.251484 10.345312,11.097656 8.2094251,10.906694 9.0449898,10.966293 6.3199221,10.71875 5.3998972,10.635639 4.5666949,10.553908 4.468359,10.53711 L 4.2886718,10.505859 4.2476559,9.982422 C 4.2259924,9.6942143 4.17438,9.3727814 4.1343749,9.2675776 3.9860381,8.8830024 3.6402658,8.8690841 3.4585934,9.2421879 3.4102604,9.3420809 3.3555509,9.6679782 3.3355467,9.9667973 L 3.2984375,10.511719 H 2.1148436 0.93320315 V 6.4355474 C 0.93437792,2.1751659 0.90816225,1.6316907 0.67148417,0.85546875 0.50397929,0.3038031 0.18906744,0.01768163 0.00156265,0 Z" />
</svg>
